# xmcd
#
# Track frame offsets:
#	150
#	11132
#	22652
#	34267
#	47110
#	57497
#	68432
#	78880
#	89180
#	100792
#	113255
#	123810
#	134457
#	146862
#	158790
#	171167
#	182175
#	194665
#	206227
#	216950
#	237087
#	253442
#	267092
#
# Disc length: 3696 seconds
#
# Revision: 2
# Processed by: cddbd v1.5.2PL0 Copyright (c) Steve Scherf et al.
# Submitted via: audiograbber 1.83.01
#
DISCID=4f0e6e17
DTITLE=Various Artist - The Northern Soul Years Volume 2
DYEAR=1900
DGENRE=Northern Soul
TTITLE0=Barbara Mercer - Give Me Another Chance
TTITLE1=The Precisions - Why Girl?
TTITLE2=Tony Galla - In Love
TTITLE3=Eddie Carlton - It Will Be Done
TTITLE4=Richard Anthony - No Good
TTITLE5=Girls From U.N.C.L.E - Agent For Love
TTITLE6=The Jaywalkers - Heartbroken Memories
TTITLE7=The 3 Degrees - Driving Me Mad
TTITLE8=Gary Haines - Keep On Going
TTITLE9=Ronnie and Robyn - Step Into My Heart
TTITLE10=Shelia Ferguson - Are You Satisfied
TTITLE11=The Precisions - Send Me A Sign
TTITLE12=The Falcons - I Can't Help It
TTITLE13=Embraceables - Here I Go
TTITLE14=Timmy Willis - Such Misery
TTITLE15=Dave Hall - Look At Me
TTITLE16=The Showmen - In Paradise
TTITLE17=Motor City Runners - Under Your Spell
TTITLE18=Barbara Mercer - A Dream
TTITLE19=Innervision - Honey Baby (Be Mine)
TTITLE20=Sunny Monroe - Why Do I (Let You Do The Things You Do)
TTITLE21=The Contours - Always On My Mind
TTITLE22=Sammy Sevens - You Are A Lucky So And So
EXTD=
EXTT0=
EXTT1=
EXTT2=
EXTT3=
EXTT4=
EXTT5=
EXTT6=
EXTT7=
EXTT8=
EXTT9=
EXTT10=
EXTT11=
EXTT12=
EXTT13=
EXTT14=
EXTT15=
EXTT16=
EXTT17=
EXTT18=
EXTT19=
EXTT20=
EXTT21=
EXTT22=
PLAYORDER=
